<?xml version="1.0" encoding="UTF-8"?>
<svg width="233px" height="382px" viewBox="0 0 233 382" version="1.1" xmlns="http://www.w3.org/2000/svg" xmlns:xlink="http://www.w3.org/1999/xlink">
    <!-- Generator: Sketch 64 (93537) - https://sketch.com -->
    <title>bloemetje 2</title>
    <desc>Created with Sketch.</desc>
    <g id="Page-1" stroke="none" stroke-width="1" fill="none" fill-rule="evenodd">
        <g id="bloemetje-2" transform="translate(7.633889, -9.731845)">
            <g>
                <g id="Group-5" transform="translate(0.250000, 89.382974)">
                    <path d="M146.21471,166.881435 C157.376719,161.076266 153.607267,148.18921 165.162281,151.496711 C176.717294,154.804212 175.644993,167.9306 185.307274,178.071271 C194.969554,188.211943 207.929253,190.475849 207.929253,196.381126 C207.929253,202.286402 190.979695,197.944799 185.307274,205.116805 C179.634852,212.288811 191.267791,220.119686 185.307274,224.983543 C179.346757,229.847401 176.296982,224.983543 160.961158,224.983543 C145.625335,224.983543 138.626242,232.757846 130.289511,224.983543 C121.95278,217.209241 133.84192,206.653031 130.289511,196.381126 C126.737102,186.10922 109.663857,186.224823 114.065494,178.071271 C118.467131,169.917719 135.052702,172.686603 146.21471,166.881435 Z" id="Path-8" stroke="#B93C3C" stroke-width="14"></path>
                    <path d="M151.162199,177.483999 C158.297708,173.772943 155.888021,165.534667 163.274765,167.649045 C170.661509,169.763424 169.976022,178.154696 176.152804,184.637298 C182.329585,191.119899 190.614299,192.567141 190.614299,196.342192 C190.614299,200.117243 179.778998,197.341797 176.152804,201.926628 C172.526609,206.511458 179.963168,211.517482 176.152804,214.626788 C172.342439,217.736093 170.392817,214.626788 160.589124,214.626788 C150.78543,214.626788 146.311138,219.596646 140.981737,214.626788 C135.652336,209.656929 143.252676,202.908687 140.981737,196.342192 C138.710798,189.775697 127.796427,189.849598 130.610251,184.637298 C133.424074,179.424997 144.02669,181.195054 151.162199,177.483999 Z" id="Path-8" stroke="#D07D85" stroke-width="14"></path>
                    <path d="M147.929883,186.840002 C149.689664,182.702007 149.189655,182.455637 156.760036,182.455637 C164.330418,182.455637 168.539307,181.885563 172.230852,186.840002 C175.922396,191.794442 174.854725,197.877063 172.230852,203.219092 C169.606979,208.561121 167.393912,209.784341 160.961158,209.784341 C154.528405,209.784341 151.219923,209.011908 147.929883,203.219092 C144.639843,197.426275 146.170102,190.977998 147.929883,186.840002 Z" id="Path-9" stroke="#B93C3C" stroke-width="14"></path>
                    <path d="M117.229001,294.078947 C92.4291356,272.988331 76.9921711,247.240554 70.9181075,216.835614 C61.8070121,171.228204 61.7226864,157.325526 30.5748925,150.962079 C-0.572901325,144.598632 -12.3366246,180.999239 16.386977,228.438789" id="Path-14" stroke="#004900" stroke-width="15" stroke-linecap="round"></path>
                    <path d="M130.915277,288.113171 C102.442808,261.093781 88.206573,233.784722 88.206573,206.185994 C88.206573,178.587267 82.3164668,145.504509 70.5362543,106.93772" id="Path-15" stroke="#004900" stroke-width="10" stroke-linecap="round"></path>
                    <path d="M139.842809,274.750209 C109.474064,238.176201 98.6012754,200.813023 107.224444,162.660675 C120.159196,105.432153 147.360875,92.1886138 149.593543,61.6970192 C151.081988,41.3692895 138.153458,20.8036164 110.807954,0" id="Path-16" stroke="#004900" stroke-width="15" stroke-linecap="round"></path>
                    <path d="M107.240779,176.157551 C119.368724,161.314877 127.260223,149.039953 130.915277,139.332777 C136.397857,124.772014 143.663346,118.122004 152.76681,112.830845 C158.835786,109.303406 168.723268,107.338944 182.429255,106.937459" id="Path-17" stroke="#004900" stroke-width="10" stroke-linecap="round"></path>
                    <path d="M134.037077,141.547505 C184.553874,143.665374 211.920539,156.637466 216.137072,180.463781 C220.353606,204.290096 209.117667,227.625016 182.429255,250.46854" id="Path-18" stroke="#004900" stroke-width="15" stroke-linecap="round"></path>
                </g>
                <text id="2" font-family="HiraMaruProN-W4, Hiragino Maru Gothic ProN" font-size="100" font-weight="normal" fill="#B93C3C">
                    <tspan x="161.201541" y="88.3421053">2</tspan>
                </text>
            </g>
        </g>
    </g>
</svg>