<?xml version="1.0" encoding="UTF-8"?>
<svg width="247px" height="374px" viewBox="0 0 247 374" version="1.1" xmlns="http://www.w3.org/2000/svg" xmlns:xlink="http://www.w3.org/1999/xlink">
    <!-- Generator: Sketch 64 (93537) - https://sketch.com -->
    <title>bloemetje 4</title>
    <desc>Created with Sketch.</desc>
    <g id="Page-1" stroke="none" stroke-width="1" fill="none" fill-rule="evenodd">
        <g id="bloemetje-4" transform="translate(7.633889, -9.731845)">
            <path d="M11.6671547,301.471717 C15.629185,299.190345 14.2911928,294.125864 18.3927227,295.425678 C22.4942525,296.725492 22.1136323,301.884029 25.543324,305.869209 C28.9730156,309.854389 33.5731481,310.744081 33.5731481,313.064795 C33.5731481,315.385508 27.5567883,313.679302 25.543324,316.497827 C23.5298597,319.316352 27.6590497,322.393806 25.543324,324.305253 C23.4275982,326.216699 22.3450602,324.305253 16.901506,324.305253 C11.4579518,324.305253 8.97357666,327.360474 6.01439768,324.305253 C3.0552187,321.250031 7.27534915,317.101549 6.01439768,313.064795 C4.75344621,309.028041 -1.30681742,309.073471 0.255573454,305.869209 C1.81796433,302.664946 7.70512446,303.753089 11.6671547,301.471717 Z" id="Path-8" stroke="#B93C3C" stroke-width="15"></path>
            <path d="M149.591078,120.297013 C153.553109,118.015641 152.215116,112.95116 156.316646,114.250974 C160.418176,115.550788 160.037556,120.709325 163.467248,124.694505 C166.896939,128.679685 171.497072,129.569377 171.497072,131.890091 C171.497072,134.210804 165.480712,132.504598 163.467248,135.323123 C161.453783,138.141648 165.582973,141.219103 163.467248,143.130549 C161.351522,145.041995 160.268984,143.130549 154.82543,143.130549 C149.381875,143.130549 146.8975,146.18577 143.938321,143.130549 C140.979142,140.075327 145.199273,135.926845 143.938321,131.890091 C142.67737,127.853337 136.617106,127.898768 138.179497,124.694505 C139.741888,121.490242 145.629048,122.578385 149.591078,120.297013 Z" id="Path-8" stroke="#B93C3C" stroke-width="15"></path>
            <path d="M164.928769,368.799128 C125.0273,347.043145 99.0930544,333.597068 87.1260309,328.460897 C74.1200507,322.878812 64.1544095,329.852902 60.0189836,326.251571 C45.2544245,313.393871 63.1975031,290.311976 68.9199366,285.189942 C72.7348923,281.775253 80.6952439,285.681627 92.8009912,296.909064" id="Path-25" stroke="#004900" stroke-width="9" stroke-linecap="round"></path>
            <path d="M178.473574,346.065669 L155.626379,326.812096 C155.326591,326.559461 155.20208,326.154951 155.307912,325.777463 L164.443132,293.193369 C164.592221,292.661588 165.144175,292.351355 165.675956,292.500444 C165.855608,292.550811 166.017585,292.650433 166.143576,292.788047 L195.661449,325.029126 C195.995234,325.393705 196.012573,325.947457 195.70225,326.332203 L179.89635,345.928791 C179.549623,346.358673 178.920057,346.426084 178.490175,346.079356 C178.484592,346.074853 178.479058,346.070291 178.473574,346.065669 Z" id="Path-28" stroke="#004900" stroke-width="15" stroke-linecap="round"></path>
            <path d="M151.468728,318.434207 L128.621534,299.180633 C128.321746,298.927998 128.197234,298.523488 128.303066,298.146 L137.438287,265.561907 C137.587376,265.030126 138.13933,264.719893 138.671111,264.868982 C138.850762,264.919349 139.01274,265.018971 139.13873,265.156585 L168.656604,297.397664 C168.990389,297.762243 169.007727,298.315994 168.697405,298.700741 L152.891505,318.297329 C152.544777,318.727211 151.915211,318.794621 151.485329,318.447894 C151.479746,318.443391 151.474212,318.438828 151.468728,318.434207 Z" id="Path-28" stroke="#004900" stroke-width="15" stroke-linecap="round"></path>
            <path d="M122.590392,290.802744 L99.7431976,271.549171 C99.4434092,271.296536 99.3188979,270.892026 99.4247297,270.514538 L108.55995,237.930444 C108.709039,237.398663 109.260994,237.08843 109.792774,237.23752 C109.972426,237.287886 110.134403,237.387508 110.260394,237.525123 L139.778267,269.766202 C140.112052,270.13078 140.129391,270.684532 139.819068,271.069278 L124.013168,290.665866 C123.666441,291.095749 123.036875,291.163159 122.606993,290.816431 C122.60141,290.811929 122.595876,290.807366 122.590392,290.802744 Z" id="Path-28" stroke="#004900" stroke-width="15" stroke-linecap="round"></path>
            <path d="M90.8298473,263.200943 L62.2038731,242.089895 C61.8585408,241.83522 61.7141712,241.388623 61.8450804,240.979995 L73.2899434,205.255324 C73.4584395,204.72937 74.0214025,204.439593 74.5473564,204.608089 C74.691712,204.654335 74.8236651,204.732794 74.933241,204.837533 L111.916179,240.188145 C112.31029,240.564862 112.330017,241.187843 111.96053,241.58874 L92.1587032,263.073846 C91.8129997,263.448937 91.2403828,263.503704 90.8298473,263.200943 Z" id="Path-28" stroke="#004900" stroke-width="15" stroke-linecap="round"></path>
            <path d="M221.223418,319.09263 C191.018449,267.290714 174.217166,234.85213 170.81957,221.776879 C165.723176,202.164003 173.864757,177.313646 182.052823,168.349179 C187.511534,162.372867 194.501884,168.429451 203.023873,186.51893" id="Path-29" stroke="#004900" stroke-width="15" stroke-linecap="round"></path>
            <path d="M167.654542,192.07489 C164.11161,180.826622 159.635011,176.101237 154.224746,177.898735 C148.814481,179.696233 144.124413,187.467136 140.154542,201.211446" id="Path-30" stroke="#004900" stroke-width="15" stroke-linecap="round"></path>
            <path d="M169.237056,196.732952 C152.679609,174.562811 140.919962,162.356243 133.958115,160.113248 C126.996268,157.870252 118.885573,163.674915 109.626031,177.527235" id="Path-31" stroke="#004900" stroke-width="15" stroke-linecap="round"></path>
            <path d="M175.688021,178.291102 C182.331461,156.121408 188.318028,143.088609 193.647723,139.192704 C198.977418,135.2968 207.641812,137.620028 219.640905,146.16239" id="Path-32" stroke="#004900" stroke-width="15" stroke-linecap="round"></path>
            <line x1="137.923924" y1="263.829705" x2="137.923924" y2="221.776879" id="Path-33" stroke="#004900" stroke-width="15" stroke-linecap="round"></line>
            <path d="M51.3808572,325.311901 C55.7396876,325.056629 56.9396643,347.610249 54.5215272,362.740397 C52.1033902,377.870546 52.1033902,383.078926 40.6892727,383.078926 C29.2751552,383.078926 23.6451456,373.761864 25.8134713,353.738334 C27.9817969,333.714803 47.0220268,325.567173 51.3808572,325.311901 Z" id="Rectangle" fill="#004900"></path>
            <path d="M60.2127626,325.311901 C64.5715931,325.056629 70.2933467,337.76659 79.6340042,346.705377 C88.9746618,355.644164 92.3765451,353.909396 92.3765451,363.647223 C92.3765451,373.385049 64.6741835,382.874165 60.2127626,360.799128 C55.7513417,338.724092 55.8539322,325.567173 60.2127626,325.311901 Z" id="Rectangle" fill="#004900"></path>
            <path d="M190.995342,154.995014 C195.354173,154.739742 204.874416,163.321585 214.215073,172.260372 C223.555731,181.199159 215.955879,209.472461 206.731559,209.472461 C197.507238,209.472461 195.456763,199.602271 190.995342,177.527235 C186.533921,155.452199 186.636512,155.250286 190.995342,154.995014 Z" id="Rectangle" fill="#004900"></path>
            <path d="M204.659475,129.995409 C209.018305,129.80331 218.538548,136.26139 227.879206,142.988079 C237.219863,149.714769 229.620012,170.991228 220.395691,170.991228 C211.171371,170.991228 209.120896,163.563631 204.659475,146.951543 C200.198054,130.339454 200.300644,130.187509 204.659475,129.995409 Z" id="Rectangle" fill="#004900"></path>
            <path d="M128.794834,172.921459 C133.466147,172.72936 143.668891,179.18744 153.679176,185.91413 C163.689461,192.640819 155.54478,213.917278 145.659172,213.917278 C135.773564,213.917278 133.576092,206.489682 128.794834,189.877593 C124.013576,173.265504 124.123521,173.113559 128.794834,172.921459 Z" id="Rectangle" fill="#004900" transform="translate(141.750000, 193.417278) scale(-1, 1) translate(-141.750000, -193.417278) "></path>
            <path d="M100.962607,152.421459 C105.63392,152.22936 115.836664,158.68744 125.846949,165.41413 C135.857234,172.140819 127.712553,193.417278 117.826945,193.417278 C107.941337,193.417278 105.743865,185.989682 100.962607,169.377593 C96.1813489,152.765504 96.291294,152.613559 100.962607,152.421459 Z" id="Rectangle" fill="#004900" transform="translate(113.917773, 172.917278) scale(-1, 1) translate(-113.917773, -172.917278) "></path>
            <path d="M78.264138,278.968715 C73.9525197,265.584774 96.9086353,285.854344 97.4081453,312.127108 C97.9076554,338.399872 67.9876133,339.618724 50.3216112,328.697195 C32.6556092,317.775667 82.5757563,292.352655 78.264138,278.968715 Z" id="Rectangle" fill="#004900" transform="translate(71.968450, 304.954195) rotate(-150.000000) translate(-71.968450, -304.954195) "></path>
            <text id="4" font-family="HiraMaruProN-W4, Hiragino Maru Gothic ProN" font-size="100" font-weight="normal" fill="#B93C3C">
                <tspan x="163.626578" y="88">4</tspan>
            </text>
            <line x1="155.134141" y1="361.300838" x2="148.683175" y2="374.278828" id="Path-34" stroke="#004900" stroke-width="4" stroke-linecap="round"></line>
            <line x1="146.134141" y1="357.300838" x2="139.683175" y2="370.278828" id="Path-34" stroke="#004900" stroke-width="4" stroke-linecap="round"></line>
            <line x1="136.134141" y1="352.300838" x2="129.683175" y2="365.278828" id="Path-34" stroke="#004900" stroke-width="4" stroke-linecap="round"></line>
            <line x1="126.134141" y1="346.300838" x2="119.683175" y2="359.278828" id="Path-34" stroke="#004900" stroke-width="4" stroke-linecap="round"></line>
            <polyline id="Path-35" stroke="#004900" stroke-width="5" stroke-linecap="round" points="221.223418 318.541579 232.144269 293.90842 218.480137 304.954195"></polyline>
            <polyline id="Path-35" stroke="#004900" stroke-width="5" stroke-linecap="round" points="211.223418 308.541579 222.144269 283.90842 208.480137 294.954195"></polyline>
            <polyline id="Path-35" stroke="#004900" stroke-width="5" stroke-linecap="round" points="203.352686 291.90842 212.144269 273.90842 201.144269 281.979815"></polyline>
        </g>
    </g>
</svg>