<?xml version="1.0" encoding="UTF-8"?>
<svg width="223px" height="382px" viewBox="0 0 223 382" version="1.1" xmlns="http://www.w3.org/2000/svg" xmlns:xlink="http://www.w3.org/1999/xlink">
    <!-- Generator: Sketch 64 (93537) - https://sketch.com -->
    <title>bloemetje 3</title>
    <desc>Created with Sketch.</desc>
    <g id="Page-1" stroke="none" stroke-width="1" fill="none" fill-rule="evenodd">
        <g id="bloemetje-3" transform="translate(7.633889, -9.731845)">
            <path d="M80.5466113,262.40274 C88.5153298,258.483812 85.8242643,249.784076 94.0735544,252.016889 C102.322845,254.249703 101.557314,263.111006 108.455355,269.956725 C115.353396,276.802444 124.605511,278.330752 124.605511,282.317259 C124.605511,286.303767 112.504978,283.372857 108.455355,288.214503 C104.405732,293.056148 112.710654,298.342581 108.455355,301.626052 C104.200056,304.909523 102.022778,301.626052 91.0743129,301.626052 C80.1258475,301.626052 75.1290945,306.874293 69.1773821,301.626052 C63.2256697,296.377811 71.7134979,289.251572 69.1773821,282.317259 C66.6412663,275.382947 54.4524308,275.460988 57.594823,269.956725 C60.7372153,264.452461 72.5778927,266.321667 80.5466113,262.40274 Z" id="Path-8" stroke="#B93C3C" stroke-width="10"></path>
            <path d="M84.0786948,269.560272 C89.1728374,267.055029 87.4525267,261.49357 92.7260297,262.920935 C97.9995326,264.3483 97.5101538,270.013043 101.919847,274.389289 C106.32954,278.765534 112.244117,279.742532 112.244117,282.290976 C112.244117,284.839421 104.50864,282.965785 101.919847,286.060892 C99.3310546,289.155999 104.640121,292.535443 101.919847,294.63446 C99.1995729,296.733476 97.8077099,294.63446 90.8087121,294.63446 C83.8097142,294.63446 80.6154525,297.98949 76.8107163,294.63446 C73.0059801,291.279429 78.4319726,286.723857 76.8107163,282.290976 C75.18946,277.858096 67.3975338,277.907985 69.4063629,274.389289 C71.4151921,270.870592 78.9845521,272.065514 84.0786948,269.560272 Z" id="Path-8" stroke="#D07D85" stroke-width="10"></path>
            <path d="M81.7710978,275.876281 C83.0274308,273.082821 82.6704669,272.916503 88.0750713,272.916503 C93.4796757,272.916503 96.4844623,272.53166 99.1199092,275.876281 C101.755356,279.220902 100.99313,283.32713 99.1199092,286.933403 C97.2466885,290.539676 95.6667483,291.365442 91.0743129,291.365442 C86.4818774,291.365442 84.1199046,290.843992 81.7710978,286.933403 C79.422291,283.022814 80.5147648,278.66974 81.7710978,275.876281 Z" id="Path-9" stroke="#B93C3C" stroke-width="10"></path>
            <path d="M205.742062,383.866772 C178.523118,359.006923 152.363051,346.576998 127.261864,346.576998 C89.6100824,346.576998 78.0120603,320.629715 60.390674,324.754911 C48.6430832,327.505041 45.6093768,339.99729 51.2895549,362.231656" id="Path-19" stroke="#004900" stroke-width="15" stroke-linecap="round"></path>
            <path d="M83,332.746178 C60.9522893,315.099599 39.6471492,308.604577 19.0845797,313.261113 C-1.47798985,317.917649 -5.42429355,337.040537 7.24566859,370.629776" id="Path-20" stroke="#004900" stroke-width="15" stroke-linecap="round"></path>
            <path d="M112.562967,114.573701 C111.198898,108.885146 116.053681,106.040869 127.127317,106.040869 C143.737769,106.040869 154.889635,175.043691 137.717258,195.249534 C126.269007,208.720097 114.793289,197.572771 103.290104,161.807555" id="Path-22" stroke="#004900" stroke-width="15" stroke-linecap="round"></path>
            <path d="M138.290104,178.818024 C138.290104,172.567523 132.456771,172.567523 120.790104,178.818024 C103.290104,188.193775 113.553654,233.130148 103.290104,233.130148" id="Path-23" stroke="#004900" stroke-width="15" stroke-linecap="round"></path>
            <path d="M124.805178,158.627174 C131.340822,217.11391 138.512513,246.357278 146.320252,246.357278 C154.127991,246.357278 160.800574,241.850486 166.337999,232.8369" id="Path-24" stroke="#004900" stroke-width="15" stroke-linecap="round"></path>
            <text id="3" font-family="HiraMaruProN-W4, Hiragino Maru Gothic ProN" font-size="100" font-weight="normal" fill="#B93C3C">
                <tspan x="155.887082" y="88">3</tspan>
            </text>
            <path d="M179.270579,270.229049 C156.078897,246.329027 208.945419,280.593823 209.740446,320.141591 C210.535473,359.689359 114.209733,380.715528 134.796868,345.08415 C155.384003,309.452771 202.462262,294.129072 179.270579,270.229049 Z" id="Rectangle" fill="#004900" transform="translate(170.828030, 312.821509) rotate(-196.000000) translate(-170.828030, -312.821509) "></path>
            <path d="M173.508721,202.840275 C168.425439,189.114069 195.490084,209.901989 196.078993,236.846622 C196.667902,263.791255 161.392974,265.041276 140.565231,253.840453 C119.737489,242.63963 178.592004,216.56648 173.508721,202.840275 Z" id="Rectangle" fill="#004900" transform="translate(166.086274, 229.490277) rotate(-150.000000) translate(-166.086274, -229.490277) "></path>
            <path d="M79.9916736,204.640551 C74.400063,190.914345 104.171172,211.702265 104.818972,238.646898 C105.466772,265.591531 66.6643517,266.841552 43.7538346,255.640729 C20.8433175,244.439906 85.5832841,218.366757 79.9916736,204.640551 Z" id="Rectangle" fill="#004900" transform="translate(71.826981, 231.290553) scale(-1, 1) rotate(-470.000000) translate(-71.826981, -231.290553) "></path>
            <path d="M93.0089388,136.954137 C90.0436908,125.663226 105.8314,142.762966 106.17493,164.9271 C106.518461,187.091233 85.9414196,188.119477 73.791903,178.905896 C61.6423864,169.692316 95.9741868,148.245048 93.0089388,136.954137 Z" id="Rectangle" fill="#004900" transform="translate(88.679178, 158.875913) scale(-1, 1) rotate(236.000000) translate(-88.679178, -158.875913) "></path>
        </g>
    </g>
</svg>