<?xml version="1.0" encoding="UTF-8"?>
<svg width="232px" height="384px" viewBox="0 0 232 384" version="1.1" xmlns="http://www.w3.org/2000/svg" xmlns:xlink="http://www.w3.org/1999/xlink">
    <!-- Generator: Sketch 64 (93537) - https://sketch.com -->
    <title>witte draak</title>
    <desc>Created with Sketch.</desc>
    <g id="Page-1" stroke="none" stroke-width="1" fill="none" fill-rule="evenodd">
        <g id="witte-draak" transform="translate(5.000000, 5.000000)">
            <path d="M0.00603353993,5.00602627 L0.444739227,369.000004 C0.451406059,371.760117 2.69064353,373.995456 5.45076478,373.997313 L217.000001,373.883618 C219.761425,373.884585 221.998798,371.644806 221.997314,368.883383 C221.997314,368.882565 221.997313,368.881748 221.994861,368.880933 L221.620849,4.99486087 C221.618013,2.23544532 219.380269,5.31644695e-15 216.620852,0 L5.00602991,0 C2.24460616,-1.26909153e-15 0.00602990833,2.23857625 0.00602990833,5 C0.00602990833,5.00200876 0.00603111887,5.00401752 0.00603353993,5.00602627 Z" id="Path-2" stroke="#000037" stroke-width="10"></path>
            <path d="M15.0056729,20.0056664 L15.3841848,354.000003 C15.3901224,356.760325 17.6295223,358.99591 20.3898504,358.997142 L202.000001,358.893339 C204.761425,358.893735 206.998722,356.65388 206.997143,353.892456 C206.997143,353.891798 206.997142,353.89114 206.995168,353.890484 L206.672478,19.9999977 C206.664977,17.2404668 204.427183,15.0048346 201.667646,15 L20.0056697,15 C17.2442459,15 15.0056697,17.2385763 15.0056697,20 C15.0056697,20.0018888 15.0056707,20.0037776 15.0056729,20.0056664 Z" id="Path-2" stroke="#000037" stroke-width="7"></path>
            <path d="M15,39.0297683 C20.3989225,35.7839738 24.8128679,32.2588076 28.2418363,28.4542695 C31.6708048,24.6497314 34.4760727,20.1649749 36.6576402,15" id="Path-3" stroke="#000037" stroke-width="3"></path>
            <path d="M184.156296,37.8437042 C189.555218,34.5979098 193.969164,31.0727435 197.398132,27.2682054 C200.827101,23.4636674 203.632368,18.9789109 205.813936,13.8139359" id="Path-3" stroke="#000037" stroke-width="3" transform="translate(194.985116, 25.828820) rotate(90.000000) translate(-194.985116, -25.828820) "></path>
            <path d="M184.156296,360.186064 C189.555218,356.94027 193.969164,353.415103 197.398132,349.610565 C200.827101,345.806027 203.632368,341.321271 205.813936,336.156296" id="Path-3" stroke="#000037" stroke-width="3" transform="translate(194.985116, 348.171180) scale(1, -1) rotate(90.000000) translate(-194.985116, -348.171180) "></path>
            <path d="M16.1860641,360.186064 C21.5849865,356.94027 25.998932,353.415103 29.4279004,349.610565 C32.8568688,345.806027 35.6621368,341.321271 37.8437042,336.156296" id="Path-3" stroke="#000037" stroke-width="3" transform="translate(27.014884, 348.171180) scale(-1, -1) rotate(90.000000) translate(-27.014884, -348.171180) "></path>
            <path d="M91.0834985,145.405769 L91.0834985,228.219653 C118.48346,225.634706 132.183441,217.827097 132.183441,204.796824 C132.183441,191.766552 118.48346,185.771781 91.0834985,186.812511 C116.772321,181.089221 129.616733,171.736823 129.616733,158.755317 C129.616733,145.77381 116.772321,141.323961 91.0834985,145.405769 Z" id="Path-4" stroke="#B93C3C" stroke-width="14" stroke-linejoin="round"></path>
        </g>
    </g>
</svg>