<?xml version="1.0" encoding="UTF-8"?>
<svg width="201px" height="381px" viewBox="0 0 201 381" version="1.1" xmlns="http://www.w3.org/2000/svg" xmlns:xlink="http://www.w3.org/1999/xlink">
    <!-- Generator: Sketch 64 (93537) - https://sketch.com -->
    <title>bloemetje 1</title>
    <desc>Created with Sketch.</desc>
    <g id="Page-1" stroke="none" stroke-width="1" fill="none" fill-rule="evenodd">
        <g id="bloemetje-1" transform="translate(7.633889, -10.413327)">
            <path d="M75.8559832,273.597558 C83.1933572,270.104044 80.715499,262.348696 88.3112156,264.33913 C95.9069321,266.329563 95.2020528,274.228939 101.553577,280.33153 C107.905101,286.434121 116.424191,287.796525 116.424191,291.350283 C116.424191,294.90404 105.282357,292.291291 101.553577,296.607358 C97.8247965,300.923425 105.471737,305.635996 101.553577,308.563034 C97.6354162,311.490072 95.6306393,308.563034 85.5495975,308.563034 C75.4685556,308.563034 70.8676847,313.24156 65.3875138,308.563034 C59.9073428,303.884509 67.7226985,297.531849 65.3875138,291.350283 C63.052329,285.168716 51.8291889,285.238285 54.7226161,280.33153 C57.6160433,275.424774 68.5186092,277.091071 75.8559832,273.597558 Z" id="Path-8" stroke="#D07D85" stroke-width="11"></path>
            <path d="M116.757473,109.815999 C110.993783,88.5559976 81.6121842,120.026036 81.6121842,132.65839 C81.6121842,145.290744 140.824651,136.821517 142.826801,147.882168 C144.828952,158.942819 90.2521296,165.675486 90.2521296,176.311021 C90.2521296,186.946556 140.824651,183.917294 142.826801,191.326093 C144.828952,198.734892 97.3817772,208.609777 99.9731123,217.219722 C102.564447,225.829666 135.377658,218.396536 142.826801,225.170622 C150.275945,231.944708 128.116636,257.066039 121.84268,257.066039 C115.568723,257.066039 122.521163,131.076001 116.757473,109.815999 Z" id="Path-6" stroke="#004900" stroke-width="11" stroke-linecap="round" stroke-linejoin="bevel"></path>
            <path d="" id="Path-7" stroke="#979797" stroke-width="11"></path>
            <path d="M70.7685289,263.616516 C82.2463128,258.151647 78.370223,246.02003 90.2521296,249.133646 C102.134036,252.247261 101.0314,264.60418 110.967029,274.150404 C120.902657,283.696629 134.228988,285.827825 134.228988,291.386934 C134.228988,296.946043 116.799924,292.858944 110.967029,299.610527 C105.134133,306.36211 117.09617,313.733939 110.967029,318.312676 C104.837887,322.891414 101.701834,318.312676 85.9321569,318.312676 C70.1624796,318.312676 62.9653813,325.631249 54.3928024,318.312676 C45.8202235,310.994104 58.0457095,301.0567 54.3928024,291.386934 C50.7398953,281.717168 33.1836446,281.825995 37.7098051,274.150404 C42.2359656,266.474814 59.2907449,269.081386 70.7685289,263.616516 Z" id="Path-8" stroke="#B93C3C" stroke-width="11"></path>
            <path d="M72.5322243,282.405112 C74.3417899,278.509686 73.827635,278.277758 81.6121842,278.277758 C89.3967333,278.277758 93.724693,277.741102 97.5206721,282.405112 C101.316651,287.069122 100.218775,292.795179 97.5206721,297.824058 C94.8225693,302.852937 92.5468944,304.004452 85.9321569,304.004452 C79.3174194,304.004452 75.91534,303.277299 72.5322243,297.824058 C69.1491085,292.370817 70.7226587,286.300538 72.5322243,282.405112 Z" id="Path-9" stroke="#B93C3C" stroke-width="11"></path>
            <path d="M0,383.357704 C0,383.357704 7.7667037,353.76163 29.7199926,346.121932 C51.6732814,338.482234 107,346.121932 107,346.121932" id="Path-10" stroke="#004900" stroke-width="15" stroke-linecap="round"></path>
            <path d="M29.9241003,363.042107 C29.9241003,363.042107 10.5030055,353.22446 10.5030055,342.726511 C10.5030055,332.228561 16.6288016,321.565375 29.9241003,321.565375 C43.2193991,321.565375 36.3892103,332.228561 59.0006972,342.726511" id="Path-11" stroke="#004900" stroke-width="11" stroke-linecap="round"></path>
            <path d="M186.97442,347.642379 C186.97442,347.642379 138.175401,328.241312 133.032863,323.015723 C127.890325,317.790133 143.458121,309.167169 150.775338,310.858682 C158.092555,312.550196 166.940445,320.356296 160.003642,329.250531 C153.066838,338.144765 133.738779,337.580795 126.010569,342.611587" id="Path-12" stroke="#004900" stroke-width="11" stroke-linecap="round"></path>
            <path d="M47.3422546,254.890109 C40.6641158,251.38043 48.2063359,242.626553 39.5742026,234.579438 C33.8194471,229.214694 25.7364985,226.035903 15.3253568,225.043065 C13.4000502,240.375305 13.4000502,250.156556 15.3253568,254.386817 C18.2133166,260.732208 25.4163756,275.423336 31.3338057,260.21664 C35.278759,250.078843 35.278759,234.422655 31.3338057,213.248077 C35.6757698,214.472037 41.0119194,218.4037 47.3422546,225.043065 C56.8377573,235.002112 63.8230485,241.474683 63.8230485,247.323357 C63.8230485,253.172032 54.0203934,258.399788 47.3422546,254.890109 Z" id="Path-13" stroke="#004900" stroke-width="11"></path>
            <text id="1" font-family="HiraMaruProN-W4, Hiragino Maru Gothic ProN" font-size="100" font-weight="normal" fill="#B93C3C">
                <tspan x="152.550273" y="88">1</tspan>
            </text>
            <path d="M39.9454419,327.837601 C43.9607338,327.607822 45.0661351,347.909104 42.838582,361.528266 C40.6110289,375.147428 40.6110289,379.835668 30.0965079,379.835668 C19.5819869,379.835668 14.395703,371.449063 16.3931334,353.425201 C18.3905639,335.401339 35.93015,328.06738 39.9454419,327.837601 Z" id="Rectangle" fill="#004900" transform="translate(29.971469, 353.835668) rotate(27.000000) translate(-29.971469, -353.835668) "></path>
        </g>
    </g>
</svg>