<?xml version="1.0" encoding="UTF-8"?>
<svg width="245px" height="387px" viewBox="0 0 245 387" version="1.1" xmlns="http://www.w3.org/2000/svg" xmlns:xlink="http://www.w3.org/1999/xlink">
    <!-- Generator: Sketch 64 (93537) - https://sketch.com -->
    <title>seizoen 1</title>
    <desc>Created with Sketch.</desc>
    <g id="Page-1" stroke="none" stroke-width="1" fill="none" fill-rule="evenodd">
        <g id="seizoen-1" transform="translate(-4.633889, -10.000000)">
            <g id="Group-3" transform="translate(1.969641, 125.731845)">
                <path d="M50.8315097,13.4632856 C52.4788986,38.1254101 66.5249003,63.1340626 75.1065751,71.8461631 C83.68825,80.5582636 97.1037081,68.964456 111.24434,74.7942799 C125.384972,80.6241037 117.632938,99.2704312 133.420075,95.8873393 C149.207211,92.5042475 166.672417,73.5941547 158.832366,64.5964419 C150.992315,55.5987291 111.423366,60.9863019 99.6563599,57.1380746 C87.8893542,53.2898473 93.3994015,55.5917273 84.1585051,40.1754468 C74.9176086,24.7591663 76.5466645,13.7097773 70.9220175,9.20152579 C65.2973705,4.69327429 49.1841208,-11.1988388 50.8315097,13.4632856 Z" id="Path-36" stroke="#B93C3C" stroke-width="5"></path>
                <path d="M75.3392678,14.8232296 C70.8422134,5.21188827 102.186991,-3.35811667 116.180019,1.31231396 C130.173048,5.98274458 130.413835,7.54439738 139.298413,26.5329857 C148.182991,45.521574 161.296276,65.4330551 143.350627,59.4433646 C134.026691,56.3313295 105.877054,63.0338453 91.27437,53.4403725 C77.7714718,44.5694221 77.4998089,19.440852 75.3392678,14.8232296 Z" id="Path-37" stroke="#B93C3C" stroke-width="5" stroke-linecap="round"></path>
                <path d="M212.310974,259.836883 C221.412149,296.55624 239.877978,233.730447 212.310974,191.004201 C184.743969,148.277956 89.3387598,80.7813203 89.3387598,91.0167709 C89.3387598,101.252222 113.445963,108.994851 162.878468,160.463221 C212.310974,211.931591 203.209798,223.117526 212.310974,259.836883 Z" id="Path-39" fill="#004900"></path>
                <path d="M196.548515,180.441621 C185.786227,169.786034 179.215035,124.53842 196.548515,129.253878 C213.881996,133.969337 234.295928,124.53842 239.877978,129.253878 C245.460028,133.969337 226.845945,140.913228 226.845945,154.84775 C226.845945,168.782272 250.349258,163.308104 239.877978,172.153759 C229.406698,180.999413 207.310803,191.097208 196.548515,180.441621 Z" id="Path-40" stroke="#004900" stroke-width="10"></path>
                <path d="M128.605048,213.202962 C117.562531,205.543236 102.517999,161.47782 120.935013,164.003422 C139.352028,166.529023 161.80319,157.69169 167.571793,161.025057 C173.340396,164.358424 152.952794,171.111586 152.244988,182.095779 C151.537183,193.079971 176.102162,170.172758 179.58462,189.130162 C183.067078,208.087565 139.647565,220.862688 128.605048,213.202962 Z" id="Path-40" stroke="#004900" stroke-width="10" transform="translate(146.032231, 187.861987) scale(-1, -1) rotate(-47.000000) translate(-146.032231, -187.861987) "></path>
                <path d="M27.8939585,142.705224 C21.5069536,125.937917 2.82453908,109.730872 20.2239236,93.5056838 C37.623308,77.2804953 51.1083231,74.1686164 66.8607035,90.5273192 C82.6130839,106.886022 53.9869432,118.373122 86.2951278,131.065499 C118.603312,143.757875 34.2809635,159.472532 27.8939585,142.705224 Z" id="Path-40" stroke="#004900" stroke-width="10" transform="translate(53.321391, 114.841749) scale(-1, -1) rotate(-47.000000) translate(-53.321391, -114.841749) "></path>
                <path d="M86.9724459,41.3068235 C104.968349,26.6037036 117.296071,20.3562615 123.955612,22.5644972 C130.615152,24.7727329 132.200588,35.6336365 128.711921,55.1472081" id="Path-38" stroke="#B93C3C" stroke-width="5" stroke-linecap="round"></path>
            </g>
            <text id="1" font-family="HiraMaruProN-W4, Hiragino Maru Gothic ProN" font-size="100" font-weight="normal" fill="#000037">
                <tspan x="-7.10542736e-14" y="88">1</tspan>
            </text>
        </g>
    </g>
</svg>