<?xml version="1.0" encoding="UTF-8"?>
<svg width="260px" height="379px" viewBox="0 0 260 379" version="1.1" xmlns="http://www.w3.org/2000/svg" xmlns:xlink="http://www.w3.org/1999/xlink">
    <!-- Generator: Sketch 64 (93537) - https://sketch.com -->
    <title>seizoen 3</title>
    <desc>Created with Sketch.</desc>
    <g id="Page-1" stroke="none" stroke-width="1" fill="none" fill-rule="evenodd">
        <g id="seizoen-3" transform="translate(5.000000, -9.000000)">
            <g id="Group-2" transform="translate(0.000000, 121.347169)">
                <path d="M118.201347,111.384942 C126.685156,99.2002999 147.01239,96.1086954 170.48264,111.384942 C193.95289,126.661189 208.43084,155.064436 197.6929,170.486513 C186.954961,185.908591 140.18479,191.474615 127.258948,173.446573 C114.333105,155.418531 109.717539,123.569585 118.201347,111.384942 Z" id="Path-46" stroke="#B93C3C" stroke-width="10"></path>
                <path d="M64.3344712,125.734567 C72.8182796,113.549925 93.1455139,110.45832 116.615764,125.734567 C140.086013,141.010814 144.612697,183.89862 133.874758,199.320697 C123.136819,214.742775 86.3179141,205.824239 73.3920717,187.796198 C60.4662292,169.768156 55.8506628,137.91921 64.3344712,125.734567 Z" id="Path-46" stroke="#B93C3C" stroke-width="10" fill="#FFFFFF"></path>
                <ellipse id="Oval" fill="#B93C3C" cx="93.2587533" cy="154.139439" rx="6.4531512" ry="7.17481234"></ellipse>
                <ellipse id="Oval" fill="#B93C3C" cx="112.716867" cy="159.99726" rx="5.26862581" ry="5.85782052"></ellipse>
                <ellipse id="Oval" fill="#B93C3C" cx="100.674293" cy="180.395003" rx="3.26153026" ry="3.62626984"></ellipse>
                <ellipse id="Oval" fill="#B93C3C" cx="120.745249" cy="191.70965" rx="3.26153026" ry="3.62626984"></ellipse>
                <ellipse id="Oval" fill="#B93C3C" cx="112.716867" cy="181.526468" rx="3.26153026" ry="3.62626984"></ellipse>
                <path d="M99.7119045,265.824658 C90.6997421,265.824658 103.935824,243.50944 71.6148516,221.644266 C62.4660693,215.455104 85.0715891,216.647409 93.2587533,225.994269 C116.009903,251.968074 197.853512,195.33592 204.85683,195.33592 C208.188292,195.33592 211.361546,204.954394 209.321183,203.004325 C201.29771,195.33592 149.620605,232.627351 129.140205,236.480928 C108.659804,240.334505 108.720404,235.088626 99.7119045,243.50944 C93.2587533,249.708137 107.448241,265.824658 99.7119045,265.824658 Z" id="Path-47" fill="#004900"></path>
                <path d="M209.980922,196.38407 C213.494342,190.326199 219.649321,178.04102 233.286916,190.589624 C246.924511,203.138228 251.79834,218.824522 248.283863,231.628439 C244.769386,244.432356 237.706089,218.052241 209.980922,222.581695 C201.313982,222.581695 206.467503,202.441942 209.980922,196.38407 Z" id="Path-48" stroke="#004900" stroke-width="10"></path>
                <path d="M115.508687,63.4682058 C119.979861,58.6718346 127.812682,48.9449398 145.167873,58.8804039 C162.523064,68.8158681 170.906396,98.536072 164.252973,91.3732352 C157.599551,84.2103983 150.791708,80.6241642 115.508687,84.2103983 C104.479146,84.2103983 111.037513,68.2645771 115.508687,63.4682058 Z" id="Path-48" stroke="#004900" stroke-width="10"></path>
                <path d="M71.3849761,220.267881 C93.2587533,231.341299 64.5220308,195.211448 47.8910752,191.366743 C31.2601197,187.522037 -7.10033658,199.187569 1.14723889,204.030486 C9.39481436,208.873403 14.6319827,200.495115 36.3297014,217.832349 C58.0274202,235.169584 49.5111989,209.194464 71.3849761,220.267881 Z" id="Path-49" stroke="#004900" stroke-width="10"></path>
                <path d="M102.748012,88.7570187 C115.760598,99.8304363 98.6652852,63.7005855 88.7716242,59.8558803 C78.8779632,56.011175 56.0575455,67.676707 60.9639813,72.5196235 C65.8704172,77.3625401 68.9859789,68.9842523 81.8938286,86.3214868 C94.8016783,103.658721 89.7354266,77.6836011 102.748012,88.7570187 Z" id="Path-49" stroke="#004900" stroke-width="10"></path>
                <path d="M108.064772,101.054682 C111.534806,62.4962902 111.534806,35.5108629 108.064772,20.0984004 C104.594738,4.68593777 89.5544501,-1.86223716 62.9439069,0.453875571" id="Path-50" stroke="#004900" stroke-width="10" stroke-linecap="round"></path>
            </g>
            <text id="3" font-family="HiraMaruProN-W4, Hiragino Maru Gothic ProN" font-size="100" font-weight="normal" fill="#000037">
                <tspan x="5.88065929" y="88">3</tspan>
            </text>
            <path d="M84.0430782,121.347169 C89.3404863,135.407551 94.2775531,145.129025 98.8542785,150.511592 C103.431004,155.894159 109.582023,159.213091 117.307335,160.46839" id="Path-51" stroke="#004900" stroke-width="10"></path>
        </g>
    </g>
</svg>