<?xml version="1.0" encoding="UTF-8"?>
<svg width="255px" height="383px" viewBox="0 0 255 383" version="1.1" xmlns="http://www.w3.org/2000/svg" xmlns:xlink="http://www.w3.org/1999/xlink">
    <!-- Generator: Sketch 64 (93537) - https://sketch.com -->
    <title>seizoen 4</title>
    <desc>Created with Sketch.</desc>
    <g id="Page-1" stroke="none" stroke-width="1" fill="none" fill-rule="evenodd">
        <g id="seizoen-4" transform="translate(0.000000, -9.000000)">
            <text id="4" font-family="HiraMaruProN-W4, Hiragino Maru Gothic ProN" font-size="100" font-weight="normal" fill="#000037">
                <tspan x="8.06236379" y="88">4</tspan>
            </text>
            <g id="Group-6" transform="translate(0.000000, 124.630605)">
                <path d="M67.1890452,19.2845569 C80.5503242,12.2381765 86.5665849,-3.36437256 100.398303,0.650310666 C114.230021,4.66499389 112.946443,6.97569394 124.5125,19.2845569 C136.078557,31.5934199 151.591728,47.9636357 151.591728,55.1315279 C151.591728,62.2994201 138.866421,62.6950408 132.076352,71.400504 C125.286283,80.1059671 131.647428,83.9456647 124.5125,89.8494706 C117.377572,95.7532765 113.726895,89.8494706 95.369426,89.8494706 C77.0119575,89.8494706 68.6338211,99.2860081 58.6544889,89.8494706 C48.6751568,80.412933 62.9068352,78.2031519 58.6544889,65.7349952 C54.4021427,53.2668385 33.9649255,42.8036918 39.2338253,32.9068169 C44.5027251,23.009942 53.8277662,26.3309374 67.1890452,19.2845569 Z" id="Path-8" stroke="#B93C3C" stroke-width="11"></path>
                <path d="M79.7705752,43.5504031 C81.8770891,38.5276567 81.2785618,38.22861 90.3405492,38.22861 C99.4025366,38.22861 104.440711,37.5366476 108.859607,43.5504031 C113.278503,49.5641587 112.000467,56.9473135 108.859607,63.4315295 C105.718748,69.9157456 103.069637,71.400504 95.369426,71.400504 C87.6692154,71.400504 83.7088575,70.4629166 79.7705752,63.4315295 C75.832293,56.4001424 77.6640614,48.5731496 79.7705752,43.5504031 Z" id="Path-9" stroke="#B93C3C" stroke-width="11"></path>
                <path d="M135.366734,261.055511 C119.332436,206.441961 122.023072,162.640318 143.438645,129.650581 C164.854217,96.6608437 200.250546,81.7912092 249.627633,85.0416773" id="Path-52" stroke="#004900" stroke-width="10" stroke-linecap="round"></path>
                <path d="M39.3228564,261.055511 C16.6064391,262.654295 17.9643305,240.889173 43.3965308,195.760142 C68.8287311,150.631111 97.3511487,144.781049 128.963784,178.209957" id="Path-52" stroke="#004900" stroke-width="10" stroke-linecap="round" transform="translate(76.105151, 209.004961) scale(-1, 1) translate(-76.105151, -209.004961) "></path>
                <path d="M133.438127,261.492824 C130.890622,238.745146 131.318106,220.500852 134.72058,206.759941 C138.123054,193.01903 143.74677,186.825518 151.591728,188.179406" id="Path-52" stroke="#004900" stroke-width="10" stroke-linecap="round"></path>
                <path d="M138.978338,260.130544 C139.648554,244.114712 141.481352,231.471184 144.476733,222.199959 C147.472114,212.928735 150.966512,209.083662 154.959927,210.664742" id="Path-52" stroke="#004900" stroke-width="10" stroke-linecap="round"></path>
                <path d="M125.774299,261.055511 C129.437957,258.118662 117.3971,224.74504 117.3971,214.104382 C117.3971,203.463725 82.440363,198.631355 60.7872099,204.045902 C39.1340569,209.460449 39.5804545,225.61741 32.7639444,235.267592 C25.9474344,244.917775 20.9291321,250.252045 24.3494223,255.631141 C27.7697124,261.010237 49.1611539,272.607859 49.1611539,261.055511 C49.1611539,249.503162 27.7070951,235.385697 49.1611539,224.74504 C70.6152127,214.104382 95.4332027,224.74504 104.123098,224.74504 C112.812993,224.74504 122.110641,263.992359 125.774299,261.055511 Z" id="Path-53" fill="#004900"></path>
                <path d="M143.387655,193.235901 C134.959963,202.357654 114.923783,210.088671 161.431192,166.201532 C207.938602,122.314392 274.153799,229.983685 224.335811,207.048916 C174.517824,184.114148 151.815347,184.114148 143.387655,193.235901 Z" id="Path-54" stroke="#004900" stroke-width="10"></path>
                <path d="M117.3971,195.519416 C117.727639,170.053371 112.510231,153.774669 101.744877,146.683308 C90.9795222,139.591947 71.484324,139.591947 43.259282,146.683308" id="Path-55" stroke="#004900" stroke-width="10" stroke-linecap="round"></path>
                <path d="M67.0744855,136.95523 C58.8153572,129.17355 57.1683347,123.506746 62.133418,119.954816 C67.0985013,116.402886 77.9881754,115.457667 94.8024403,117.119159" id="Path-56" stroke="#004900" stroke-width="10" stroke-linecap="round"></path>
                <path d="M37.4882663,119.831406 C29.6265202,110.104306 28.0587431,103.020801 32.7849348,98.5808884 C37.5111266,94.1409763 47.8768516,92.9594525 63.8821099,95.0363168" id="Path-56" stroke="#004900" stroke-width="10" stroke-linecap="round" transform="translate(47.002672, 106.937446) scale(1, -1) translate(-47.002672, -106.937446) "></path>
                <path d="M43.4265886,94.3729628 C43.4265886,85.0005586 19.0314274,57.528267 4.27818603,62.3735733 C-10.4750554,67.2188796 17.4237158,70.9859933 20.4179999,81.7346907 C23.4122839,92.4833881 43.4265886,103.745367 43.4265886,94.3729628 Z" id="Path-57" fill="#004900"></path>
            </g>
        </g>
    </g>
</svg>