<?xml version="1.0" encoding="UTF-8"?>
<svg width="256px" height="384px" viewBox="0 0 256 384" version="1.1" xmlns="http://www.w3.org/2000/svg" xmlns:xlink="http://www.w3.org/1999/xlink">
    <!-- Generator: Sketch 64 (93537) - https://sketch.com -->
    <title>seizoen 2</title>
    <desc>Created with Sketch.</desc>
    <g id="Page-1" stroke="none" stroke-width="1" fill="none" fill-rule="evenodd">
        <g id="seizoen-2" transform="translate(5.937636, -9.000000)">
            <text id="2" font-family="HiraMaruProN-W4, Hiragino Maru Gothic ProN" font-size="100" font-weight="normal" fill="#000037">
                <tspan x="3.30739939" y="88">2</tspan>
            </text>
            <g id="Group-4" transform="translate(0.000000, 128.000000)">
                <path d="M45.6184316,106.211615 C18.7913963,106.211615 55.615854,153.04742 81.9595251,171.905309 C108.303196,190.763199 136.669576,193.195922 153.747422,171.905309 C170.825268,150.614697 166.958668,96.8260434 135.550774,105.094161 C104.142879,113.362278 72.4454668,106.211615 45.6184316,106.211615 Z" id="Path-41" stroke="#B93C3C" stroke-width="15"></path>
                <path d="M63.0128169,84.6839822 C57.4351626,58.2434251 102.932865,103.76927 117.517913,127.660087 C132.102962,151.550904 149.560799,177.155402 132.443456,198.413786 C115.326113,219.672171 62.3064494,227.044564 63.8027202,194.370103 C65.298991,161.695642 68.5904711,111.124539 63.0128169,84.6839822 Z" id="Path-41" stroke="#B93C3C" stroke-width="15"></path>
                <path d="M55.615854,236.263626 C137.939488,218.328395 23.4699812,267.750239 84.530099,258.937303 C145.590217,250.124368 185.095459,162.988575 201.118476,131.444814" id="Path-42" stroke="#004900" stroke-width="10" stroke-linecap="round"></path>
                <path d="M137.492134,231.390721 C137.409384,232.889585 151.941491,232.783766 162.409869,234.48807 C172.878248,236.192374 166.392494,245.974401 177.321806,244.426694 C188.251117,242.878986 188.251117,236.256622 177.321806,225.750463 C166.392494,215.244305 137.575594,229.891856 137.492134,231.390721 Z" id="Rectangle" fill="#004900"></path>
                <path d="M152.377308,210.599115 C152.294558,212.097979 166.826665,211.99216 177.295044,213.696464 C187.763422,215.400768 181.277668,225.182795 192.20698,223.635088 C203.136292,222.08738 203.136292,215.465016 192.20698,204.958857 C181.277668,194.452699 152.460768,209.10025 152.377308,210.599115 Z" id="Rectangle" fill="#004900"></path>
                <path d="M164.566405,189.412827 C164.483655,190.911691 179.015762,190.805872 189.484141,192.510176 C199.952519,194.21448 193.466765,203.996507 204.396077,202.448799 C215.325389,200.901092 215.325389,194.278728 204.396077,183.772569 C193.466765,173.266411 164.649865,187.913962 164.566405,189.412827 Z" id="Rectangle" fill="#004900"></path>
                <path d="M207.982795,133.943717 C207.403815,134.752406 199.49654,127.815696 193.05864,123.732658 C186.620739,119.649619 186.094116,127.742143 180.758855,121.771628 C175.423594,115.801113 178.182582,112.402016 188.539686,112.185575 C198.89679,111.969135 208.561776,133.135028 207.982795,133.943717 Z" id="Rectangle" fill="#004900"></path>
                <path d="M198.121138,131.444814 C199.310305,136.437518 203.614624,137.530167 206.622502,134.444691 C213.307573,127.587157 219.724554,122.548152 227.815511,131.444814 C241.227589,146.192478 243.273154,155.776442 247.291866,161.016092 C251.310577,166.255743 251.023391,121.832553 237.747785,121.257381 C224.472178,120.682208 195.1238,118.860522 198.121138,131.444814 Z" id="Rectangle" fill="#004900"></path>
                <line x1="104.985439" y1="234.481603" x2="92.6873043" y2="260" id="Path-43" stroke="#004900" stroke-width="5" stroke-linecap="round"></line>
                <line x1="122.492844" y1="228.914204" x2="110.194709" y2="254.432601" id="Path-43" stroke="#004900" stroke-width="5" stroke-linecap="round"></line>
                <path d="M39.9584297,208.257485 C39.9584297,208.257485 22.4587429,210.939708 13.4441372,219.051503 C5.93571072,225.807963 6.6354689,238.243161 6.6354689,238.243161" id="Path-44" stroke="#004900" stroke-width="10" stroke-linecap="round"></path>
                <path d="M116.343776,74.6200897 C93.4209421,49.3986943 67.7323219,41.3661114 39.2779155,50.522341 C10.8235092,59.6785707 -2.17081174,78.2416621 0.294952848,106.211615" id="Path-45" stroke="#004900" stroke-width="10" stroke-linecap="round"></path>
                <path d="M87.6722353,74.6200897 C113.484626,53.5753072 124.946043,38.0292066 122.056486,27.9817879 C111.353629,11.339883 97.8425227,2.01262042 81.5231678,1.9177278e-14" id="Path-45" stroke="#004900" stroke-width="10" stroke-linecap="round" transform="translate(102.008006, 37.310045) scale(-1, 1) translate(-102.008006, -37.310045) "></path>
            </g>
        </g>
    </g>
</svg>